<svg width="216" height="114" viewBox="0 0 216 114" fill="none" xmlns="http://www.w3.org/2000/svg">
<rect x="0.5" y="1.02722" width="215" height="112" fill="white" stroke="#E1E1E1"/>
<path d="M29.7334 36.626H23.5664V32.4951C23.5664 31.2939 23.498 30.5469 23.3613 30.2539C23.2344 29.9512 22.9463 29.7998 22.4971 29.7998C21.9893 29.7998 21.667 29.9805 21.5303 30.3418C21.3936 30.7031 21.3252 31.4844 21.3252 32.6855V43.7012C21.3252 44.8535 21.3936 45.6055 21.5303 45.957C21.667 46.3086 21.9746 46.4844 22.4531 46.4844C22.9121 46.4844 23.21 46.3086 23.3467 45.957C23.4932 45.6055 23.5664 44.7803 23.5664 43.4814V40.5078H29.7334V41.4307C29.7334 43.8818 29.5576 45.6201 29.2061 46.6455C28.8643 47.6709 28.0977 48.5693 26.9062 49.3408C25.7246 50.1123 24.2646 50.498 22.5264 50.498C20.7197 50.498 19.2305 50.1709 18.0586 49.5166C16.8867 48.8623 16.1104 47.959 15.7295 46.8066C15.3486 45.6445 15.1582 43.9014 15.1582 41.5771V34.6484C15.1582 32.9395 15.2168 31.6602 15.334 30.8105C15.4512 29.9512 15.7979 29.126 16.374 28.335C16.96 27.5439 17.7656 26.9238 18.791 26.4746C19.8262 26.0156 21.0127 25.7861 22.3506 25.7861C24.167 25.7861 25.666 26.1377 26.8477 26.8408C28.0293 27.5439 28.8057 28.4229 29.1768 29.4775C29.5479 30.5225 29.7334 32.1533 29.7334 34.3701V36.626ZM42.5947 26.2842L46.125 50H39.8115L39.5039 45.7373H37.292L36.9258 50H30.5391L33.6738 26.2842H42.5947ZM39.3281 41.5332C39.0156 38.8477 38.7031 35.5322 38.3906 31.5869C37.7656 36.1182 37.375 39.4336 37.2188 41.5332H39.3281ZM60.2461 33.4619H54.5186V31.7041C54.5186 30.8838 54.4453 30.3613 54.2988 30.1367C54.1523 29.9121 53.9082 29.7998 53.5664 29.7998C53.1953 29.7998 52.9121 29.9512 52.7168 30.2539C52.5312 30.5566 52.4385 31.0156 52.4385 31.6309C52.4385 32.4219 52.5459 33.0176 52.7607 33.418C52.9658 33.8184 53.5469 34.3018 54.5039 34.8682C57.248 36.499 58.9766 37.8369 59.6895 38.8818C60.4023 39.9268 60.7588 41.6113 60.7588 43.9355C60.7588 45.625 60.5586 46.8701 60.1582 47.6709C59.7676 48.4717 59.0059 49.1455 57.873 49.6924C56.7402 50.2295 55.4219 50.498 53.918 50.498C52.2676 50.498 50.8564 50.1855 49.6846 49.5605C48.5225 48.9355 47.7607 48.1396 47.3994 47.1729C47.0381 46.2061 46.8574 44.834 46.8574 43.0566V41.5039H52.585V44.3896C52.585 45.2783 52.6631 45.8496 52.8193 46.1035C52.9854 46.3574 53.2734 46.4844 53.6836 46.4844C54.0938 46.4844 54.3965 46.3232 54.5918 46.001C54.7969 45.6787 54.8994 45.2002 54.8994 44.5654C54.8994 43.1689 54.709 42.2559 54.3281 41.8262C53.9375 41.3965 52.9756 40.6787 51.4424 39.6729C49.9092 38.6572 48.8936 37.9199 48.3955 37.4609C47.8975 37.002 47.4824 36.3672 47.1504 35.5566C46.8281 34.7461 46.667 33.7109 46.667 32.4512C46.667 30.6348 46.8965 29.3066 47.3555 28.4668C47.8242 27.627 48.5762 26.9727 49.6113 26.5039C50.6465 26.0254 51.8965 25.7861 53.3613 25.7861C54.9629 25.7861 56.3252 26.0449 57.4482 26.5625C58.5811 27.0801 59.3281 27.7344 59.6895 28.5254C60.0605 29.3066 60.2461 30.6396 60.2461 32.5244V33.4619ZM62.707 26.2842H72.9902V31.0303H68.874V35.5273H72.7266V40.0391H68.874V45.2539H73.4004V50H62.707V26.2842ZM80.4902 26.2842H85.1045C88.083 26.2842 90.0947 26.4209 91.1396 26.6943C92.1943 26.9678 92.9951 27.417 93.542 28.042C94.0889 28.667 94.4307 29.3652 94.5674 30.1367C94.7041 30.8984 94.7725 32.4023 94.7725 34.6484V42.9541C94.7725 45.083 94.6699 46.5088 94.4648 47.2314C94.2695 47.9443 93.9229 48.5059 93.4248 48.916C92.9268 49.3164 92.3115 49.5996 91.5791 49.7656C90.8467 49.9219 89.7432 50 88.2686 50H80.4902V26.2842ZM86.6572 30.3418V45.9424C87.5459 45.9424 88.0928 45.7666 88.2979 45.415C88.5029 45.0537 88.6055 44.082 88.6055 42.5V33.2861C88.6055 32.2119 88.5713 31.5234 88.5029 31.2207C88.4346 30.918 88.2783 30.6982 88.0342 30.5615C87.79 30.415 87.3311 30.3418 86.6572 30.3418ZM97.0723 26.2842H107.355V31.0303H103.239V35.5273H107.092V40.0391H103.239V45.2539H107.766V50H97.0723V26.2842ZM121.975 26.2842V31.0303H118.312V50H112.146V31.0303H108.498V26.2842H121.975ZM123.381 26.2842H133.664V31.0303H129.548V35.5273H133.4V40.0391H129.548V45.2539H134.074V50H123.381V26.2842ZM150.261 36.626H144.094V32.4951C144.094 31.2939 144.025 30.5469 143.889 30.2539C143.762 29.9512 143.474 29.7998 143.024 29.7998C142.517 29.7998 142.194 29.9805 142.058 30.3418C141.921 30.7031 141.853 31.4844 141.853 32.6855V43.7012C141.853 44.8535 141.921 45.6055 142.058 45.957C142.194 46.3086 142.502 46.4844 142.98 46.4844C143.439 46.4844 143.737 46.3086 143.874 45.957C144.021 45.6055 144.094 44.7803 144.094 43.4814V40.5078H150.261V41.4307C150.261 43.8818 150.085 45.6201 149.733 46.6455C149.392 47.6709 148.625 48.5693 147.434 49.3408C146.252 50.1123 144.792 50.498 143.054 50.498C141.247 50.498 139.758 50.1709 138.586 49.5166C137.414 48.8623 136.638 47.959 136.257 46.8066C135.876 45.6445 135.686 43.9014 135.686 41.5771V34.6484C135.686 32.9395 135.744 31.6602 135.861 30.8105C135.979 29.9512 136.325 29.126 136.901 28.335C137.487 27.5439 138.293 26.9238 139.318 26.4746C140.354 26.0156 141.54 25.7861 142.878 25.7861C144.694 25.7861 146.193 26.1377 147.375 26.8408C148.557 27.5439 149.333 28.4229 149.704 29.4775C150.075 30.5225 150.261 32.1533 150.261 34.3701V36.626ZM164.895 26.2842V31.0303H161.232V50H155.065V31.0303H151.418V26.2842H164.895ZM172.468 26.2842V50H166.301V26.2842H172.468ZM189.592 26.2842L186.457 50H177.097L173.537 26.2842H180.041C180.793 32.8174 181.33 38.3398 181.652 42.8516C181.975 38.291 182.312 34.2383 182.663 30.6934L183.088 26.2842H189.592ZM190.646 26.2842H200.93V31.0303H196.813V35.5273H200.666V40.0391H196.813V45.2539H201.34V50H190.646V26.2842ZM31.916 70.4619H26.1885V68.7041C26.1885 67.8838 26.1152 67.3613 25.9688 67.1367C25.8223 66.9121 25.5781 66.7998 25.2363 66.7998C24.8652 66.7998 24.582 66.9512 24.3867 67.2539C24.2012 67.5566 24.1084 68.0156 24.1084 68.6309C24.1084 69.4219 24.2158 70.0176 24.4307 70.418C24.6357 70.8184 25.2168 71.3018 26.1738 71.8682C28.918 73.499 30.6465 74.8369 31.3594 75.8818C32.0723 76.9268 32.4287 78.6113 32.4287 80.9355C32.4287 82.625 32.2285 83.8701 31.8281 84.6709C31.4375 85.4717 30.6758 86.1455 29.543 86.6924C28.4102 87.2295 27.0918 87.498 25.5879 87.498C23.9375 87.498 22.5264 87.1855 21.3545 86.5605C20.1924 85.9355 19.4307 85.1396 19.0693 84.1729C18.708 83.2061 18.5273 81.834 18.5273 80.0566V78.5039H24.2549V81.3896C24.2549 82.2783 24.333 82.8496 24.4893 83.1035C24.6553 83.3574 24.9434 83.4844 25.3535 83.4844C25.7637 83.4844 26.0664 83.3232 26.2617 83.001C26.4668 82.6787 26.5693 82.2002 26.5693 81.5654C26.5693 80.1689 26.3789 79.2559 25.998 78.8262C25.6074 78.3965 24.6455 77.6787 23.1123 76.6729C21.5791 75.6572 20.5635 74.9199 20.0654 74.4609C19.5674 74.002 19.1523 73.3672 18.8203 72.5566C18.498 71.7461 18.3369 70.7109 18.3369 69.4512C18.3369 67.6348 18.5664 66.3066 19.0254 65.4668C19.4941 64.627 20.2461 63.9727 21.2812 63.5039C22.3164 63.0254 23.5664 62.7861 25.0312 62.7861C26.6328 62.7861 27.9951 63.0449 29.1182 63.5625C30.251 64.0801 30.998 64.7344 31.3594 65.5254C31.7305 66.3066 31.916 67.6396 31.916 69.5244V70.4619ZM47.5898 74.3877V79.1484C47.5898 80.8965 47.502 82.1807 47.3262 83.001C47.1504 83.8115 46.7744 84.5732 46.1982 85.2861C45.6221 85.9893 44.8799 86.5117 43.9717 86.8535C43.0732 87.1855 42.0381 87.3516 40.8662 87.3516C39.5576 87.3516 38.4492 87.21 37.541 86.9268C36.6328 86.6338 35.9248 86.1992 35.417 85.623C34.9189 85.0371 34.5625 84.334 34.3477 83.5137C34.1328 82.6836 34.0254 81.4434 34.0254 79.793V74.8125C34.0254 73.0059 34.2207 71.5947 34.6113 70.5791C35.002 69.5635 35.7051 68.748 36.7207 68.1328C37.7363 67.5176 39.0352 67.21 40.6172 67.21C41.9453 67.21 43.083 67.4102 44.0303 67.8105C44.9873 68.2012 45.7246 68.7139 46.2422 69.3486C46.7598 69.9834 47.1113 70.6377 47.2969 71.3115C47.4922 71.9854 47.5898 73.0107 47.5898 74.3877ZM41.6719 72.9229C41.6719 71.9268 41.6182 71.3018 41.5107 71.0479C41.4033 70.7842 41.1738 70.6523 40.8223 70.6523C40.4707 70.6523 40.2363 70.7842 40.1191 71.0479C40.002 71.3018 39.9434 71.9268 39.9434 72.9229V81.6973C39.9434 82.6152 40.002 83.2158 40.1191 83.499C40.2363 83.7725 40.4658 83.9092 40.8076 83.9092C41.1592 83.9092 41.3887 83.7822 41.4961 83.5283C41.6133 83.2744 41.6719 82.7275 41.6719 81.8877V72.9229ZM63.1025 67.5615V87H57.082L57.1846 85.3887C56.7744 86.043 56.2666 86.5361 55.6611 86.8682C55.0654 87.1904 54.377 87.3516 53.5957 87.3516C52.707 87.3516 51.9697 87.1953 51.3838 86.8828C50.7979 86.5703 50.3633 86.1553 50.0801 85.6377C49.8066 85.1201 49.6357 84.583 49.5674 84.0264C49.499 83.46 49.4648 82.3418 49.4648 80.6719V67.5615H55.3828V80.7891C55.3828 82.3027 55.4268 83.2012 55.5146 83.4844C55.6123 83.7676 55.8662 83.9092 56.2764 83.9092C56.7158 83.9092 56.9746 83.7627 57.0527 83.4697C57.1406 83.1768 57.1846 82.2344 57.1846 80.6426V67.5615H63.1025ZM71.0713 67.5615L70.9688 69.4072C71.4277 68.6748 71.9746 68.1279 72.6094 67.7666C73.2441 67.3955 73.9668 67.21 74.7773 67.21C76.3594 67.21 77.6045 67.9424 78.5127 69.4072C79.0107 68.6748 79.5723 68.1279 80.1973 67.7666C80.8223 67.3955 81.5156 67.21 82.2773 67.21C83.2832 67.21 84.1133 67.4541 84.7676 67.9424C85.4316 68.4307 85.8564 69.0312 86.042 69.7441C86.2275 70.4473 86.3203 71.5947 86.3203 73.1865V87H80.5781V74.3291C80.5781 72.6689 80.5195 71.6436 80.4023 71.2529C80.2949 70.8525 80.0361 70.6523 79.626 70.6523C79.2061 70.6523 78.9326 70.8477 78.8057 71.2383C78.6885 71.6289 78.6299 72.6592 78.6299 74.3291V87H72.8877V74.6514C72.8877 72.7471 72.8389 71.6045 72.7412 71.2236C72.6533 70.8428 72.3994 70.6523 71.9795 70.6523C71.7158 70.6523 71.4912 70.7549 71.3057 70.96C71.1201 71.1553 71.0176 71.3994 70.998 71.6924C70.9785 71.9756 70.9688 72.5859 70.9688 73.5234V87H65.2266V67.5615H71.0713ZM100.764 67.5615L99.0645 81.624C98.8008 83.8506 98.5762 85.3691 98.3906 86.1797C98.2148 86.9902 97.917 87.6592 97.4971 88.1865C97.0771 88.7139 96.4912 89.0996 95.7393 89.3438C94.9971 89.5977 93.8057 89.7246 92.165 89.7246H88.5762V86.6191C89.4941 86.6191 90.085 86.5752 90.3486 86.4873C90.6123 86.3896 90.7441 86.1797 90.7441 85.8574C90.7441 85.7012 90.6221 85.0225 90.3779 83.8213L87.1406 67.5615H92.5166L94.4502 80.6719L95.3877 67.5615H100.764ZM107.106 75.0908H101.555V73.7871C101.555 72.2832 101.726 71.126 102.067 70.3154C102.419 69.4951 103.117 68.7725 104.162 68.1475C105.207 67.5225 106.564 67.21 108.234 67.21C110.236 67.21 111.745 67.5664 112.761 68.2793C113.776 68.9824 114.387 69.8516 114.592 70.8867C114.797 71.9121 114.899 74.0312 114.899 77.2441V87H109.143V85.2715C108.781 85.9648 108.312 86.4873 107.736 86.8389C107.17 87.1807 106.491 87.3516 105.7 87.3516C104.665 87.3516 103.713 87.0635 102.844 86.4873C101.984 85.9014 101.555 84.627 101.555 82.6641V81.0674C101.555 79.6123 101.784 78.6211 102.243 78.0938C102.702 77.5664 103.84 76.9512 105.656 76.248C107.6 75.4863 108.64 74.9736 108.776 74.71C108.913 74.4463 108.981 73.9092 108.981 73.0986C108.981 72.083 108.903 71.4238 108.747 71.1211C108.601 70.8086 108.352 70.6523 108 70.6523C107.6 70.6523 107.351 70.7842 107.253 71.0479C107.155 71.3018 107.106 71.9707 107.106 73.0547V75.0908ZM108.981 77.7568C108.034 78.4502 107.482 79.0312 107.326 79.5C107.18 79.9688 107.106 80.6426 107.106 81.5215C107.106 82.5273 107.17 83.1768 107.297 83.4697C107.434 83.7627 107.697 83.9092 108.088 83.9092C108.459 83.9092 108.698 83.7969 108.806 83.5723C108.923 83.3379 108.981 82.7324 108.981 81.7559V77.7568ZM137.106 63.2842L133.576 73.9922L137.443 87H131.071L128.581 76.834V87H122.414V63.2842H128.581V72.498L131.32 63.2842H137.106ZM143.64 75.0908H138.088V73.7871C138.088 72.2832 138.259 71.126 138.601 70.3154C138.952 69.4951 139.65 68.7725 140.695 68.1475C141.74 67.5225 143.098 67.21 144.768 67.21C146.77 67.21 148.278 67.5664 149.294 68.2793C150.31 68.9824 150.92 69.8516 151.125 70.8867C151.33 71.9121 151.433 74.0312 151.433 77.2441V87H145.676V85.2715C145.314 85.9648 144.846 86.4873 144.27 86.8389C143.703 87.1807 143.024 87.3516 142.233 87.3516C141.198 87.3516 140.246 87.0635 139.377 86.4873C138.518 85.9014 138.088 84.627 138.088 82.6641V81.0674C138.088 79.6123 138.317 78.6211 138.776 78.0938C139.235 77.5664 140.373 76.9512 142.189 76.248C144.133 75.4863 145.173 74.9736 145.31 74.71C145.446 74.4463 145.515 73.9092 145.515 73.0986C145.515 72.083 145.437 71.4238 145.28 71.1211C145.134 70.8086 144.885 70.6523 144.533 70.6523C144.133 70.6523 143.884 70.7842 143.786 71.0479C143.688 71.3018 143.64 71.9707 143.64 73.0547V75.0908ZM145.515 77.7568C144.567 78.4502 144.016 79.0312 143.859 79.5C143.713 79.9688 143.64 80.6426 143.64 81.5215C143.64 82.5273 143.703 83.1768 143.83 83.4697C143.967 83.7627 144.23 83.9092 144.621 83.9092C144.992 83.9092 145.231 83.7969 145.339 83.5723C145.456 83.3379 145.515 82.7324 145.515 81.7559V77.7568ZM159.387 67.5615L159.152 70.1104C160.012 68.2842 161.257 67.3174 162.888 67.21V74.0508C161.804 74.0508 161.008 74.1973 160.5 74.4902C159.992 74.7832 159.68 75.1934 159.562 75.7207C159.445 76.2383 159.387 77.4395 159.387 79.3242V87H153.469V67.5615H159.387ZM183.337 67.5615L180.979 87H174.548C174.196 84.627 173.791 81.502 173.332 77.625C173.176 79.3242 172.956 81.043 172.673 82.7812L172.014 87H165.583L163.078 67.5615H168.176C168.215 68.0693 168.645 71.7754 169.465 78.6797C169.523 77.9766 169.963 74.2705 170.783 67.5615H175.69L176.892 78.6797C177.077 75.4375 177.526 71.7314 178.239 67.5615H183.337ZM189.606 75.0908H184.055V73.7871C184.055 72.2832 184.226 71.126 184.567 70.3154C184.919 69.4951 185.617 68.7725 186.662 68.1475C187.707 67.5225 189.064 67.21 190.734 67.21C192.736 67.21 194.245 67.5664 195.261 68.2793C196.276 68.9824 196.887 69.8516 197.092 70.8867C197.297 71.9121 197.399 74.0312 197.399 77.2441V87H191.643V85.2715C191.281 85.9648 190.812 86.4873 190.236 86.8389C189.67 87.1807 188.991 87.3516 188.2 87.3516C187.165 87.3516 186.213 87.0635 185.344 86.4873C184.484 85.9014 184.055 84.627 184.055 82.6641V81.0674C184.055 79.6123 184.284 78.6211 184.743 78.0938C185.202 77.5664 186.34 76.9512 188.156 76.248C190.1 75.4863 191.14 74.9736 191.276 74.71C191.413 74.4463 191.481 73.9092 191.481 73.0986C191.481 72.083 191.403 71.4238 191.247 71.1211C191.101 70.8086 190.852 70.6523 190.5 70.6523C190.1 70.6523 189.851 70.7842 189.753 71.0479C189.655 71.3018 189.606 71.9707 189.606 73.0547V75.0908ZM191.481 77.7568C190.534 78.4502 189.982 79.0312 189.826 79.5C189.68 79.9688 189.606 80.6426 189.606 81.5215C189.606 82.5273 189.67 83.1768 189.797 83.4697C189.934 83.7627 190.197 83.9092 190.588 83.9092C190.959 83.9092 191.198 83.7969 191.306 83.5723C191.423 83.3379 191.481 82.7324 191.481 81.7559V77.7568Z" fill="black"/>
</svg>
