<svg width="169" height="89" viewBox="0 0 169 89" fill="none" xmlns="http://www.w3.org/2000/svg">
<rect width="169" height="88.412" fill="white"/>
<path d="M20.3098 12.8438V15.0889H21.4807V17.3447H20.3098V24.9717C20.3098 25.9098 20.3563 26.4326 20.4494 26.54C20.5497 26.6475 20.9543 26.7012 21.6633 26.7012V29H19.9123C18.924 29 18.2186 28.9606 17.7961 28.8818C17.3736 28.7959 17.0012 28.6061 16.6789 28.3125C16.3566 28.0117 16.1561 27.6715 16.0773 27.292C15.9986 26.9053 15.9592 26.0029 15.9592 24.585V17.3447H15.0246V15.0889H15.9592V12.8438H20.3098ZM32.2551 19.751V23.2422C32.2551 24.5241 32.1906 25.4658 32.0617 26.0674C31.9328 26.6618 31.6571 27.2204 31.2346 27.7432C30.812 28.2588 30.2678 28.6419 29.6017 28.8926C28.9429 29.1361 28.1838 29.2578 27.3244 29.2578C26.3648 29.2578 25.5519 29.154 24.8859 28.9463C24.2199 28.7314 23.7007 28.4128 23.3283 27.9902C22.9631 27.5605 22.7017 27.0449 22.5441 26.4434C22.3866 25.8346 22.3078 24.9251 22.3078 23.7148V20.0625C22.3078 18.7376 22.451 17.7028 22.7375 16.958C23.0239 16.2132 23.5396 15.6152 24.2844 15.1641C25.0292 14.7129 25.9816 14.4873 27.1418 14.4873C28.1157 14.4873 28.9501 14.6341 29.6447 14.9277C30.3465 15.2142 30.8872 15.5902 31.2668 16.0557C31.6463 16.5212 31.9042 17.001 32.0402 17.4951C32.1835 17.9893 32.2551 18.7412 32.2551 19.751ZM27.9152 18.6768C27.9152 17.9463 27.8758 17.488 27.7971 17.3018C27.7183 17.1084 27.55 17.0117 27.2922 17.0117C27.0344 17.0117 26.8625 17.1084 26.7766 17.3018C26.6906 17.488 26.6476 17.9463 26.6476 18.6768V25.1113C26.6476 25.7845 26.6906 26.2249 26.7766 26.4326C26.8625 26.6331 27.0308 26.7334 27.2814 26.7334C27.5392 26.7334 27.7075 26.6403 27.7863 26.4541C27.8723 26.2679 27.9152 25.8669 27.9152 25.251V18.6768ZM47.176 20.127H43.0832V18.4834C43.0832 17.9105 43.0366 17.5238 42.9435 17.3232C42.8504 17.1156 42.6786 17.0117 42.4279 17.0117C42.1773 17.0117 42.009 17.1012 41.923 17.2803C41.8371 17.4593 41.7941 17.8604 41.7941 18.4834V25.208C41.7941 25.7165 41.8586 26.0996 41.9875 26.3574C42.1164 26.6081 42.3062 26.7334 42.5568 26.7334C42.8504 26.7334 43.0474 26.6009 43.1476 26.3359C43.2551 26.071 43.3088 25.5697 43.3088 24.832V23.1348H47.176C47.1688 24.2734 47.1258 25.1292 47.0471 25.7021C46.9754 26.2679 46.7355 26.8516 46.3273 27.4531C45.9263 28.0475 45.3999 28.4987 44.7482 28.8066C44.0965 29.1074 43.2909 29.2578 42.3312 29.2578C41.1066 29.2578 40.1363 29.0501 39.4201 28.6348C38.704 28.2122 38.1955 27.625 37.8947 26.873C37.6011 26.1139 37.4543 25.0397 37.4543 23.6504V19.6006C37.4543 18.3903 37.576 17.4772 37.8195 16.8613C38.063 16.2454 38.5822 15.6976 39.3771 15.2178C40.1721 14.7308 41.1389 14.4873 42.2775 14.4873C43.409 14.4873 44.3758 14.7272 45.1779 15.207C45.98 15.6868 46.5135 16.292 46.7785 17.0225C47.0435 17.7529 47.176 18.7878 47.176 20.127ZM58.2941 19.751V23.2422C58.2941 24.5241 58.2297 25.4658 58.1008 26.0674C57.9719 26.6618 57.6961 27.2204 57.2736 27.7432C56.8511 28.2588 56.3068 28.6419 55.6408 28.8926C54.982 29.1361 54.2228 29.2578 53.3635 29.2578C52.4038 29.2578 51.591 29.154 50.925 28.9463C50.259 28.7314 49.7398 28.4128 49.3674 27.9902C49.0021 27.5605 48.7407 27.0449 48.5832 26.4434C48.4256 25.8346 48.3469 24.9251 48.3469 23.7148V20.0625C48.3469 18.7376 48.4901 17.7028 48.7766 16.958C49.063 16.2132 49.5786 15.6152 50.3234 15.1641C51.0682 14.7129 52.0207 14.4873 53.1808 14.4873C54.1548 14.4873 54.9891 14.6341 55.6838 14.9277C56.3856 15.2142 56.9263 15.5902 57.3058 16.0557C57.6854 16.5212 57.9432 17.001 58.0793 17.4951C58.2225 17.9893 58.2941 18.7412 58.2941 19.751ZM53.9543 18.6768C53.9543 17.9463 53.9149 17.488 53.8361 17.3018C53.7573 17.1084 53.5891 17.0117 53.3312 17.0117C53.0734 17.0117 52.9016 17.1084 52.8156 17.3018C52.7297 17.488 52.6867 17.9463 52.6867 18.6768V25.1113C52.6867 25.7845 52.7297 26.2249 52.8156 26.4326C52.9016 26.6331 53.0698 26.7334 53.3205 26.7334C53.5783 26.7334 53.7466 26.6403 53.8254 26.4541C53.9113 26.2679 53.9543 25.8669 53.9543 25.251V18.6768ZM64.1486 14.7451L64.0734 16.0557C64.3885 15.5329 64.7717 15.1426 65.2228 14.8848C65.6812 14.6198 66.2075 14.4873 66.8019 14.4873C67.5467 14.4873 68.1555 14.6628 68.6281 15.0137C69.1008 15.3646 69.4051 15.8086 69.5412 16.3457C69.6773 16.8757 69.7453 17.7637 69.7453 19.0098V29H65.4055V19.1279C65.4055 18.1468 65.3732 17.5488 65.3088 17.334C65.2443 17.1191 65.0653 17.0117 64.7717 17.0117C64.4637 17.0117 64.2704 17.137 64.1916 17.3877C64.1128 17.6312 64.0734 18.29 64.0734 19.3643V29H59.7336V14.7451H64.1486ZM75.8254 12.8438V15.0889H76.9963V17.3447H75.8254V24.9717C75.8254 25.9098 75.8719 26.4326 75.965 26.54C76.0653 26.6475 76.4699 26.7012 77.1789 26.7012V29H75.4279C74.4396 29 73.7342 28.9606 73.3117 28.8818C72.8892 28.7959 72.5168 28.6061 72.1945 28.3125C71.8723 28.0117 71.6717 27.6715 71.593 27.292C71.5142 26.9053 71.4748 26.0029 71.4748 24.585V17.3447H70.5402V15.0889H71.4748V12.8438H75.8254ZM82.4211 11.6084V13.875H77.9523V11.6084H82.4211ZM82.4211 14.7451V29H77.9523V14.7451H82.4211ZM88.4045 14.7451L88.3293 16.0557C88.6444 15.5329 89.0275 15.1426 89.4787 14.8848C89.937 14.6198 90.4634 14.4873 91.0578 14.4873C91.8026 14.4873 92.4113 14.6628 92.884 15.0137C93.3566 15.3646 93.661 15.8086 93.7971 16.3457C93.9331 16.8757 94.0012 17.7637 94.0012 19.0098V29H89.6613V19.1279C89.6613 18.1468 89.6291 17.5488 89.5646 17.334C89.5002 17.1191 89.3211 17.0117 89.0275 17.0117C88.7196 17.0117 88.5262 17.137 88.4474 17.3877C88.3687 17.6312 88.3293 18.29 88.3293 19.3643V29H83.9894V14.7451H88.4045ZM105.442 14.7451V29H101.027L101.102 27.8184C100.801 28.2982 100.429 28.6598 99.9846 28.9033C99.5477 29.1396 99.0428 29.2578 98.4699 29.2578C97.8182 29.2578 97.2775 29.1432 96.8478 28.9141C96.4182 28.6849 96.0995 28.3805 95.8918 28.001C95.6913 27.6214 95.5659 27.2275 95.5158 26.8193C95.4657 26.404 95.4406 25.584 95.4406 24.3594V14.7451H99.7805V24.4453C99.7805 25.5553 99.8127 26.2142 99.8771 26.4219C99.9488 26.6296 100.135 26.7334 100.436 26.7334C100.758 26.7334 100.948 26.626 101.005 26.4111C101.07 26.1963 101.102 25.5052 101.102 24.3379V14.7451H105.442ZM116.828 22.125H111.21V25.208C111.21 25.8525 111.257 26.2679 111.35 26.4541C111.443 26.6403 111.622 26.7334 111.887 26.7334C112.216 26.7334 112.435 26.6117 112.542 26.3682C112.657 26.1175 112.714 25.6377 112.714 24.9287V23.0488H116.828V24.1016C116.828 24.9824 116.771 25.6592 116.656 26.1318C116.549 26.6045 116.291 27.1094 115.883 27.6465C115.475 28.1836 114.956 28.5882 114.325 28.8604C113.702 29.1253 112.918 29.2578 111.973 29.2578C111.056 29.2578 110.247 29.1253 109.545 28.8604C108.843 28.5954 108.295 28.2337 107.902 27.7754C107.515 27.3099 107.246 26.8014 107.096 26.25C106.945 25.6914 106.87 24.8822 106.87 23.8223V19.665C106.87 18.4189 107.039 17.4378 107.375 16.7217C107.712 15.9984 108.263 15.4469 109.029 15.0674C109.796 14.6807 110.677 14.4873 111.672 14.4873C112.89 14.4873 113.892 14.7201 114.68 15.1855C115.475 15.6439 116.03 16.2562 116.345 17.0225C116.667 17.7816 116.828 18.8522 116.828 20.2344V22.125ZM112.478 19.8047V18.7627C112.478 18.0251 112.438 17.5488 112.36 17.334C112.281 17.1191 112.12 17.0117 111.876 17.0117C111.575 17.0117 111.389 17.1048 111.318 17.291C111.246 17.4701 111.21 17.9606 111.21 18.7627V19.8047H112.478ZM132.082 14.7451V29H127.667L127.742 27.8184C127.442 28.2982 127.069 28.6598 126.625 28.9033C126.188 29.1396 125.683 29.2578 125.111 29.2578C124.459 29.2578 123.918 29.1432 123.488 28.9141C123.059 28.6849 122.74 28.3805 122.532 28.001C122.332 27.6214 122.207 27.2275 122.156 26.8193C122.106 26.404 122.081 25.584 122.081 24.3594V14.7451H126.421V24.4453C126.421 25.5553 126.453 26.2142 126.518 26.4219C126.589 26.6296 126.776 26.7334 127.076 26.7334C127.399 26.7334 127.588 26.626 127.646 26.4111C127.71 26.1963 127.742 25.5052 127.742 24.3379V14.7451H132.082ZM142.502 19.2998H138.656V18.5264C138.656 17.8675 138.617 17.4521 138.538 17.2803C138.467 17.1012 138.28 17.0117 137.98 17.0117C137.736 17.0117 137.554 17.0941 137.432 17.2588C137.31 17.4163 137.249 17.6562 137.249 17.9785C137.249 18.4154 137.278 18.7376 137.335 18.9453C137.4 19.1458 137.582 19.3678 137.883 19.6113C138.191 19.8548 138.818 20.2093 139.763 20.6748C141.023 21.2907 141.85 21.8708 142.244 22.415C142.638 22.9593 142.835 23.7507 142.835 24.7891C142.835 25.9492 142.685 26.8265 142.384 27.4209C142.083 28.0081 141.578 28.4629 140.869 28.7852C140.168 29.1003 139.319 29.2578 138.323 29.2578C137.221 29.2578 136.275 29.0859 135.487 28.7422C134.707 28.3984 134.17 27.9329 133.876 27.3457C133.583 26.7585 133.436 25.8704 133.436 24.6816V23.9941H137.281V24.8965C137.281 25.6628 137.328 26.1605 137.421 26.3896C137.521 26.6188 137.715 26.7334 138.001 26.7334C138.309 26.7334 138.524 26.6582 138.646 26.5078C138.767 26.3503 138.828 26.0244 138.828 25.5303C138.828 24.8499 138.75 24.4238 138.592 24.252C138.427 24.0801 137.586 23.5716 136.068 22.7266C134.793 22.0104 134.016 21.3623 133.737 20.7822C133.457 20.195 133.318 19.5003 133.318 18.6982C133.318 17.5596 133.468 16.7217 133.769 16.1846C134.07 15.6403 134.578 15.2214 135.294 14.9277C136.017 14.6341 136.855 14.4873 137.808 14.4873C138.753 14.4873 139.555 14.609 140.214 14.8525C140.88 15.0889 141.389 15.404 141.739 15.7979C142.098 16.1917 142.312 16.557 142.384 16.8936C142.463 17.2301 142.502 17.7565 142.502 18.4727V19.2998ZM153.824 22.125H148.206V25.208C148.206 25.8525 148.253 26.2679 148.346 26.4541C148.439 26.6403 148.618 26.7334 148.883 26.7334C149.212 26.7334 149.431 26.6117 149.538 26.3682C149.653 26.1175 149.71 25.6377 149.71 24.9287V23.0488H153.824V24.1016C153.824 24.9824 153.767 25.6592 153.653 26.1318C153.545 26.6045 153.287 27.1094 152.879 27.6465C152.471 28.1836 151.952 28.5882 151.321 28.8604C150.698 29.1253 149.914 29.2578 148.969 29.2578C148.052 29.2578 147.243 29.1253 146.541 28.8604C145.839 28.5954 145.292 28.2337 144.898 27.7754C144.511 27.3099 144.242 26.8014 144.092 26.25C143.942 25.6914 143.866 24.8822 143.866 23.8223V19.665C143.866 18.4189 144.035 17.4378 144.371 16.7217C144.708 15.9984 145.259 15.4469 146.026 15.0674C146.792 14.6807 147.673 14.4873 148.668 14.4873C149.886 14.4873 150.888 14.7201 151.676 15.1855C152.471 15.6439 153.026 16.2562 153.341 17.0225C153.663 17.7816 153.824 18.8522 153.824 20.2344V22.125ZM149.474 19.8047V18.7627C149.474 18.0251 149.434 17.5488 149.356 17.334C149.277 17.1191 149.116 17.0117 148.872 17.0117C148.571 17.0117 148.385 17.1048 148.314 17.291C148.242 17.4701 148.206 17.9606 148.206 18.7627V19.8047H149.474Z" fill="black"/>
<rect x="88.2402" y="39.8611" width="39.1204" height="39.1204" fill="black"/>
<path d="M96.8519 48.0819L117.99 56.871V61.3534L96.8519 70.1864V64.3856L109.904 59.1342L96.8519 53.9047V48.0819Z" fill="white"/>
<rect x="42.8613" y="39.8611" width="39.1204" height="39.1204" fill="black"/>
<path d="M72.6107 70.9688L51.473 62.1577V57.6973L72.6107 48.8643V54.665L59.559 59.9165L72.6107 65.146V70.9688Z" fill="white"/>
</svg>
