<svg width="459" height="92" viewBox="0 0 459 92" fill="none" xmlns="http://www.w3.org/2000/svg">
<rect y="0.527145" width="459" height="91" fill="white"/>
<path d="M51.7578 42.7791H39.4238V34.5174C39.4238 32.115 39.2871 30.6209 39.0137 30.035C38.7598 29.4295 38.1836 29.1268 37.2852 29.1268C36.2695 29.1268 35.625 29.4881 35.3516 30.2107C35.0781 30.9334 34.9414 32.4959 34.9414 34.8982V56.9295C34.9414 59.2342 35.0781 60.7381 35.3516 61.4412C35.625 62.1443 36.2402 62.4959 37.1973 62.4959C38.1152 62.4959 38.7109 62.1443 38.9844 61.4412C39.2773 60.7381 39.4238 59.0877 39.4238 56.49V50.5428H51.7578V52.3885C51.7578 57.2908 51.4062 60.7674 50.7031 62.8182C50.0195 64.8689 48.4863 66.6658 46.1035 68.2088C43.7402 69.7518 40.8203 70.5232 37.3438 70.5232C33.7305 70.5232 30.752 69.8689 28.4082 68.5603C26.0645 67.2518 24.5117 65.4451 23.75 63.1404C22.9883 60.8162 22.6074 57.3299 22.6074 52.6814V38.824C22.6074 35.4061 22.7246 32.8475 22.959 31.1482C23.1934 29.4295 23.8867 27.7791 25.0391 26.1971C26.2109 24.615 27.8223 23.3748 29.873 22.4764C31.9434 21.5584 34.3164 21.0994 36.9922 21.0994C40.625 21.0994 43.623 21.8025 45.9863 23.2088C48.3496 24.615 49.9023 26.3728 50.6445 28.4822C51.3867 30.5721 51.7578 33.8338 51.7578 38.2674V42.7791ZM77.4805 22.0955L84.541 69.5271H71.9141L71.2988 61.0018H66.875L66.1426 69.5271H53.3691L59.6387 22.0955H77.4805ZM70.9473 52.5936C70.3223 47.2225 69.6973 40.5916 69.0723 32.701C67.8223 41.7635 67.041 48.3943 66.7285 52.5936H70.9473ZM112.783 36.451H101.328V32.9353C101.328 31.2947 101.182 30.2498 100.889 29.8006C100.596 29.3514 100.107 29.1268 99.4238 29.1268C98.6816 29.1268 98.1152 29.4295 97.7246 30.035C97.3535 30.6404 97.168 31.5584 97.168 32.7889C97.168 34.3709 97.3828 35.5623 97.8125 36.3631C98.2227 37.1639 99.3848 38.1307 101.299 39.2635C106.787 42.5252 110.244 45.201 111.67 47.2908C113.096 49.3807 113.809 52.7498 113.809 57.3982C113.809 60.7771 113.408 63.2674 112.607 64.8689C111.826 66.4705 110.303 67.8182 108.037 68.9119C105.771 69.9861 103.135 70.5232 100.127 70.5232C96.8262 70.5232 94.0039 69.8982 91.6602 68.6482C89.3359 67.3982 87.8125 65.8064 87.0898 63.8728C86.3672 61.9393 86.0059 59.1951 86.0059 55.6404V52.535H97.4609V58.3064C97.4609 60.0838 97.6172 61.2264 97.9297 61.7342C98.2617 62.242 98.8379 62.4959 99.6582 62.4959C100.479 62.4959 101.084 62.1736 101.475 61.5291C101.885 60.8846 102.09 59.9275 102.09 58.658C102.09 55.865 101.709 54.0389 100.947 53.1795C100.166 52.3201 98.2422 50.8846 95.1758 48.8728C92.1094 46.8416 90.0781 45.367 89.082 44.449C88.0859 43.5311 87.2559 42.2615 86.5918 40.6404C85.9473 39.0193 85.625 36.949 85.625 34.4295C85.625 30.7967 86.084 28.1404 87.002 26.4607C87.9395 24.7811 89.4434 23.4725 91.5137 22.535C93.584 21.5779 96.084 21.0994 99.0137 21.0994C102.217 21.0994 104.941 21.617 107.188 22.6521C109.453 23.6873 110.947 24.9959 111.67 26.5779C112.412 28.1404 112.783 30.8064 112.783 34.576V36.451ZM117.705 22.0955H138.271V31.5877H130.039V40.5818H137.744V49.6053H130.039V60.035H139.092V69.5271H117.705V22.0955ZM151.25 38.6482V48.2869H142.314V38.6482H151.25ZM151.25 59.8592V69.5271H142.314V59.8592H151.25ZM185.908 22.0955V32.4373L178.35 69.5271H166.572L174.98 30.6209H163.291V22.0955H185.908ZM214.062 61.4412V69.5271H188.018V62.7596C195.732 50.1424 200.312 42.3396 201.758 39.3514C203.223 36.3436 203.955 33.9998 203.955 32.3201C203.955 31.0311 203.73 30.074 203.281 29.449C202.852 28.8045 202.188 28.4822 201.289 28.4822C200.391 28.4822 199.717 28.8338 199.268 29.5369C198.838 30.24 198.623 31.6365 198.623 33.7264V38.2381H188.018V36.5096C188.018 33.8533 188.154 31.7635 188.428 30.24C188.701 28.6971 189.375 27.1834 190.449 25.699C191.523 24.2146 192.92 23.0916 194.639 22.3299C196.357 21.5682 198.418 21.1873 200.82 21.1873C205.527 21.1873 209.082 22.3592 211.484 24.7029C213.906 27.0271 215.117 29.9764 215.117 33.5506C215.117 36.2654 214.434 39.1365 213.066 42.1639C211.719 45.1912 207.725 51.617 201.084 61.4412H214.062ZM244.502 22.0955V29.6834H229.824V37.74C231.66 35.5721 234.023 34.4881 236.914 34.4881C240.176 34.4881 242.637 35.4061 244.297 37.242C245.977 39.0584 246.816 42.5643 246.816 47.7596V54.5271C246.816 57.8865 246.65 60.3572 246.318 61.9393C246.006 63.5018 245.322 64.9568 244.268 66.3045C243.213 67.6326 241.738 68.658 239.844 69.3807C237.969 70.0838 235.674 70.4353 232.959 70.4353C229.912 70.4353 227.227 69.908 224.902 68.8533C222.578 67.7791 220.928 66.1873 219.951 64.0779C218.975 61.9686 218.486 58.7068 218.486 54.2928V51.7146H230.322V54.6736C230.322 57.74 230.43 59.9178 230.645 61.2068C230.859 62.4959 231.602 63.1404 232.871 63.1404C233.457 63.1404 233.926 62.9549 234.277 62.5838C234.648 62.2127 234.844 61.8123 234.863 61.3826C234.902 60.9529 234.941 59.0877 234.98 55.7869V46.3826C234.98 44.6053 234.795 43.3943 234.424 42.7498C234.053 42.1053 233.438 41.783 232.578 41.783C232.031 41.783 231.572 41.949 231.201 42.2811C230.83 42.6131 230.586 42.9744 230.469 43.365C230.371 43.7361 230.322 44.615 230.322 46.0018H218.604L219.102 22.0955H244.502ZM271.865 22.0955V31.5877L262.666 60.035H271.865V69.5271H249.131V62.6424L258.623 31.5877H250.244V22.0955H271.865ZM296.387 22.0955L303.447 69.5271H290.82L290.205 61.0018H285.781L285.049 69.5271H272.275L278.545 22.0955H296.387ZM289.854 52.5936C289.229 47.2225 288.604 40.5916 287.979 32.701C286.729 41.7635 285.947 48.3943 285.635 52.5936H289.854ZM319.707 46.0018V54.1756H304.15V46.0018H319.707ZM348.74 22.0955V29.6834H334.062V37.74C335.898 35.5721 338.262 34.4881 341.152 34.4881C344.414 34.4881 346.875 35.4061 348.535 37.242C350.215 39.0584 351.055 42.5643 351.055 47.7596V54.5271C351.055 57.8865 350.889 60.3572 350.557 61.9393C350.244 63.5018 349.561 64.9568 348.506 66.3045C347.451 67.6326 345.977 68.658 344.082 69.3807C342.207 70.0838 339.912 70.4353 337.197 70.4353C334.15 70.4353 331.465 69.908 329.141 68.8533C326.816 67.7791 325.166 66.1873 324.189 64.0779C323.213 61.9686 322.725 58.7068 322.725 54.2928V51.7146H334.561V54.6736C334.561 57.74 334.668 59.9178 334.883 61.2068C335.098 62.4959 335.84 63.1404 337.109 63.1404C337.695 63.1404 338.164 62.9549 338.516 62.5838C338.887 62.2127 339.082 61.8123 339.102 61.3826C339.141 60.9529 339.18 59.0877 339.219 55.7869V46.3826C339.219 44.6053 339.033 43.3943 338.662 42.7498C338.291 42.1053 337.676 41.783 336.816 41.783C336.27 41.783 335.811 41.949 335.439 42.2811C335.068 42.6131 334.824 42.9744 334.707 43.365C334.609 43.7361 334.561 44.615 334.561 46.0018H322.842L323.34 22.0955H348.74ZM380.645 61.4412V69.5271H354.6V62.7596C362.314 50.1424 366.895 42.3396 368.34 39.3514C369.805 36.3436 370.537 33.9998 370.537 32.3201C370.537 31.0311 370.312 30.074 369.863 29.449C369.434 28.8045 368.77 28.4822 367.871 28.4822C366.973 28.4822 366.299 28.8338 365.85 29.5369C365.42 30.24 365.205 31.6365 365.205 33.7264V38.2381H354.6V36.5096C354.6 33.8533 354.736 31.7635 355.01 30.24C355.283 28.6971 355.957 27.1834 357.031 25.699C358.105 24.2146 359.502 23.0916 361.221 22.3299C362.939 21.5682 365 21.1873 367.402 21.1873C372.109 21.1873 375.664 22.3592 378.066 24.7029C380.488 27.0271 381.699 29.9764 381.699 33.5506C381.699 36.2654 381.016 39.1365 379.648 42.1639C378.301 45.1912 374.307 51.617 367.666 61.4412H380.645ZM406.221 22.0955V31.5877L397.021 60.035H406.221V69.5271H383.486V62.6424L392.979 31.5877H384.6V22.0955H406.221ZM436.982 22.0955V69.5271H426.172L419.756 47.9646V69.5271H409.443V22.0955H419.756L426.67 43.4529V22.0955H436.982Z" fill="black"/>
</svg>
