<svg width="1011" height="436" viewBox="0 0 1011 436" fill="none" xmlns="http://www.w3.org/2000/svg">
<rect x="0.5" y="1.02716" width="1010" height="434" fill="white" stroke="#E1E1E1"/>
<path d="M68.9648 38.4744V54.2947H56.7578V117.527H36.2012V54.2947H24.043V38.4744H68.9648ZM120.918 38.4744V117.527H100.361V84.324H94.209V117.527H73.6523V38.4744H94.209V66.7459H100.361V38.4744H120.918ZM129.219 38.4744H163.496V54.2947H149.775V69.2849H162.617V84.324H149.775V101.707H164.863V117.527H129.219V38.4744ZM251.924 38.4744V117.527H233.955V64.158L226.777 117.527H214.033L206.465 65.3787V117.527H188.496V38.4744H215.107C215.889 43.227 216.719 48.826 217.598 55.2713L220.43 75.3885L225.117 38.4744H251.924ZM307.148 84.7635C307.148 92.7062 306.953 98.3377 306.562 101.658C306.204 104.946 305.033 107.957 303.047 110.691C301.094 113.426 298.441 115.525 295.088 116.99C291.735 118.455 287.829 119.187 283.369 119.187C279.137 119.187 275.329 118.504 271.943 117.137C268.59 115.737 265.889 113.653 263.838 110.887C261.787 108.12 260.566 105.109 260.176 101.853C259.785 98.5981 259.59 92.9015 259.59 84.7635V71.2381C259.59 63.2954 259.769 57.6801 260.127 54.3924C260.518 51.0721 261.689 48.0447 263.643 45.3103C265.628 42.576 268.298 40.4763 271.65 39.0115C275.003 37.5467 278.91 36.8142 283.369 36.8142C287.601 36.8142 291.393 37.5141 294.746 38.9138C298.132 40.281 300.85 42.3481 302.9 45.115C304.951 47.8819 306.172 50.893 306.562 54.1482C306.953 57.4034 307.148 63.1 307.148 71.2381V84.7635ZM286.592 58.7869C286.592 55.1085 286.38 52.7648 285.957 51.7556C285.566 50.714 284.736 50.1931 283.467 50.1931C282.393 50.1931 281.562 50.6163 280.977 51.4627C280.423 52.2765 280.146 54.7179 280.146 58.7869V95.701C280.146 100.291 280.326 103.123 280.684 104.197C281.074 105.271 281.953 105.808 283.32 105.808C284.72 105.808 285.615 105.19 286.006 103.953C286.396 102.716 286.592 99.77 286.592 95.115V58.7869ZM358.418 62.4002H339.326V56.5408C339.326 53.8064 339.082 52.0649 338.594 51.3162C338.105 50.5675 337.292 50.1931 336.152 50.1931C334.915 50.1931 333.971 50.6977 333.32 51.7068C332.702 52.7159 332.393 54.2459 332.393 56.2967C332.393 58.9334 332.751 60.9191 333.467 62.2537C334.15 63.5883 336.087 65.1997 339.277 67.0877C348.424 72.5239 354.186 76.9835 356.562 80.4666C358.939 83.9497 360.127 89.5649 360.127 97.3123C360.127 102.944 359.46 107.094 358.125 109.763C356.823 112.433 354.284 114.679 350.508 116.502C346.732 118.292 342.337 119.187 337.324 119.187C331.823 119.187 327.119 118.146 323.213 116.062C319.339 113.979 316.8 111.326 315.596 108.103C314.391 104.881 313.789 100.307 313.789 94.3826V89.2068H332.881V98.826C332.881 101.788 333.141 103.692 333.662 104.539C334.215 105.385 335.176 105.808 336.543 105.808C337.91 105.808 338.919 105.271 339.57 104.197C340.254 103.123 340.596 101.528 340.596 99.4119C340.596 94.7569 339.961 91.7133 338.691 90.281C337.389 88.8487 334.183 86.4562 329.072 83.1033C323.962 79.7179 320.576 77.2602 318.916 75.7303C317.256 74.2003 315.872 72.0844 314.766 69.3826C313.691 66.6808 313.154 63.2303 313.154 59.031C313.154 52.9763 313.919 48.5493 315.449 45.7498C317.012 42.9503 319.518 40.7693 322.969 39.2068C326.419 37.6118 330.586 36.8142 335.469 36.8142C340.807 36.8142 345.348 37.6769 349.092 39.4021C352.868 41.1274 355.358 43.3084 356.562 45.9451C357.799 48.5493 358.418 52.9926 358.418 59.2752V62.4002ZM408.027 38.4744V54.2947H395.82V117.527H375.264V54.2947H363.105V38.4744H408.027ZM450.947 38.4744V117.527H430.391V38.4744H450.947ZM507.197 72.9471H486.641V59.1775C486.641 55.1736 486.413 52.6834 485.957 51.7068C485.534 50.6977 484.574 50.1931 483.076 50.1931C481.383 50.1931 480.309 50.7954 479.854 51.9998C479.398 53.2042 479.17 55.8084 479.17 59.8123V96.531C479.17 100.372 479.398 102.879 479.854 104.051C480.309 105.222 481.335 105.808 482.93 105.808C484.46 105.808 485.452 105.222 485.908 104.051C486.396 102.879 486.641 100.128 486.641 95.7986V85.8865H507.197V88.9627C507.197 97.1332 506.611 102.928 505.439 106.345C504.3 109.763 501.745 112.758 497.773 115.33C493.835 117.901 488.968 119.187 483.174 119.187C477.152 119.187 472.188 118.097 468.281 115.916C464.375 113.735 461.787 110.724 460.518 106.883C459.248 103.009 458.613 97.1984 458.613 89.451V66.3553C458.613 60.6586 458.809 56.3943 459.199 53.5623C459.59 50.6977 460.745 47.9471 462.666 45.3103C464.619 42.6736 467.305 40.6066 470.723 39.1092C474.173 37.5792 478.128 36.8142 482.588 36.8142C488.643 36.8142 493.639 37.9861 497.578 40.3299C501.517 42.6736 504.105 45.6033 505.342 49.1189C506.579 52.602 507.197 58.0382 507.197 65.4275V72.9471ZM561.543 84.7635C561.543 92.7062 561.348 98.3377 560.957 101.658C560.599 104.946 559.427 107.957 557.441 110.691C555.488 113.426 552.835 115.525 549.482 116.99C546.13 118.455 542.223 119.187 537.764 119.187C533.532 119.187 529.723 118.504 526.338 117.137C522.985 115.737 520.283 113.653 518.232 110.887C516.182 108.12 514.961 105.109 514.57 101.853C514.18 98.5981 513.984 92.9015 513.984 84.7635V71.2381C513.984 63.2954 514.163 57.6801 514.521 54.3924C514.912 51.0721 516.084 48.0447 518.037 45.3103C520.023 42.576 522.692 40.4763 526.045 39.0115C529.398 37.5467 533.304 36.8142 537.764 36.8142C541.995 36.8142 545.788 37.5141 549.141 38.9138C552.526 40.281 555.244 42.3481 557.295 45.115C559.346 47.8819 560.566 50.893 560.957 54.1482C561.348 57.4034 561.543 63.1 561.543 71.2381V84.7635ZM540.986 58.7869C540.986 55.1085 540.775 52.7648 540.352 51.7556C539.961 50.714 539.131 50.1931 537.861 50.1931C536.787 50.1931 535.957 50.6163 535.371 51.4627C534.818 52.2765 534.541 54.7179 534.541 58.7869V95.701C534.541 100.291 534.72 103.123 535.078 104.197C535.469 105.271 536.348 105.808 537.715 105.808C539.115 105.808 540.01 105.19 540.4 103.953C540.791 102.716 540.986 99.77 540.986 95.115V58.7869ZM615.156 38.4744V117.527H597.139L586.445 81.5896V117.527H569.258V38.4744H586.445L597.969 74.0701V38.4744H615.156ZM644.014 38.4744V117.527H623.457V38.4744H644.014ZM700.264 72.9471H679.707V59.1775C679.707 55.1736 679.479 52.6834 679.023 51.7068C678.6 50.6977 677.64 50.1931 676.143 50.1931C674.45 50.1931 673.376 50.7954 672.92 51.9998C672.464 53.2042 672.236 55.8084 672.236 59.8123V96.531C672.236 100.372 672.464 102.879 672.92 104.051C673.376 105.222 674.401 105.808 675.996 105.808C677.526 105.808 678.519 105.222 678.975 104.051C679.463 102.879 679.707 100.128 679.707 95.7986V85.8865H700.264V88.9627C700.264 97.1332 699.678 102.928 698.506 106.345C697.367 109.763 694.811 112.758 690.84 115.33C686.901 117.901 682.035 119.187 676.24 119.187C670.218 119.187 665.254 118.097 661.348 115.916C657.441 113.735 654.854 110.724 653.584 106.883C652.314 103.009 651.68 97.1984 651.68 89.451V66.3553C651.68 60.6586 651.875 56.3943 652.266 53.5623C652.656 50.6977 653.812 47.9471 655.732 45.3103C657.686 42.6736 660.371 40.6066 663.789 39.1092C667.24 37.5792 671.195 36.8142 675.654 36.8142C681.709 36.8142 686.706 37.9861 690.645 40.3299C694.583 42.6736 697.171 45.6033 698.408 49.1189C699.645 52.602 700.264 58.0382 700.264 65.4275V72.9471ZM725.312 38.4744H740.693C750.622 38.4744 757.327 38.9301 760.811 39.8416C764.326 40.753 766.995 42.2504 768.818 44.3338C770.641 46.4171 771.781 48.7446 772.236 51.3162C772.692 53.8553 772.92 58.8683 772.92 66.3553V94.0408C772.92 101.137 772.578 105.89 771.895 108.299C771.243 110.675 770.088 112.547 768.428 113.914C766.768 115.248 764.717 116.192 762.275 116.746C759.834 117.267 756.156 117.527 751.24 117.527H725.312V38.4744ZM745.869 51.9998V104.002C748.831 104.002 750.654 103.416 751.338 102.244C752.021 101.039 752.363 97.8006 752.363 92.5271V61.8142C752.363 58.2335 752.249 55.9386 752.021 54.9295C751.794 53.9204 751.273 53.1879 750.459 52.7322C749.645 52.2439 748.115 51.9998 745.869 51.9998ZM827.314 38.4744V91.3064C827.314 97.296 827.119 101.512 826.729 103.953C826.338 106.362 825.182 108.852 823.262 111.424C821.341 113.963 818.802 115.9 815.645 117.234C812.52 118.536 808.825 119.187 804.561 119.187C799.84 119.187 795.674 118.406 792.061 116.844C788.447 115.281 785.745 113.247 783.955 110.74C782.165 108.234 781.107 105.597 780.781 102.83C780.456 100.03 780.293 94.171 780.293 85.2517V38.4744H800.85V97.7517C800.85 101.202 801.029 103.416 801.387 104.392C801.777 105.336 802.542 105.808 803.682 105.808C804.984 105.808 805.814 105.288 806.172 104.246C806.562 103.172 806.758 100.665 806.758 96.7263V38.4744H827.314ZM882.246 84.7635C882.246 92.7062 882.051 98.3377 881.66 101.658C881.302 104.946 880.13 107.957 878.145 110.691C876.191 113.426 873.538 115.525 870.186 116.99C866.833 118.455 862.926 119.187 858.467 119.187C854.235 119.187 850.426 118.504 847.041 117.137C843.688 115.737 840.986 113.653 838.936 110.887C836.885 108.12 835.664 105.109 835.273 101.853C834.883 98.5981 834.688 92.9015 834.688 84.7635V71.2381C834.688 63.2954 834.867 57.6801 835.225 54.3924C835.615 51.0721 836.787 48.0447 838.74 45.3103C840.726 42.576 843.395 40.4763 846.748 39.0115C850.101 37.5467 854.007 36.8142 858.467 36.8142C862.699 36.8142 866.491 37.5141 869.844 38.9138C873.229 40.281 875.947 42.3481 877.998 45.115C880.049 47.8819 881.27 50.893 881.66 54.1482C882.051 57.4034 882.246 63.1 882.246 71.2381V84.7635ZM861.689 58.7869C861.689 55.1085 861.478 52.7648 861.055 51.7556C860.664 50.714 859.834 50.1931 858.564 50.1931C857.49 50.1931 856.66 50.6163 856.074 51.4627C855.521 52.2765 855.244 54.7179 855.244 58.7869V95.701C855.244 100.291 855.423 103.123 855.781 104.197C856.172 105.271 857.051 105.808 858.418 105.808C859.818 105.808 860.713 105.19 861.104 103.953C861.494 102.716 861.689 99.77 861.689 95.115V58.7869ZM928.193 38.4744V117.527H907.637V38.4744H928.193ZM982.344 38.4744V117.527H964.326L953.633 81.5896V117.527H936.445V38.4744H953.633L965.156 74.0701V38.4744H982.344Z" fill="#282626"/>
<path d="M179.013 154.252H212.03C222.46 154.252 230.347 155.065 235.693 156.689C241.091 158.314 245.441 161.616 248.743 166.595C252.044 171.521 253.695 179.487 253.695 190.493C253.695 197.935 252.516 203.123 250.158 206.058C247.852 208.993 243.266 211.247 236.4 212.819C244.052 214.549 249.241 217.431 251.966 221.467C254.691 225.45 256.054 231.581 256.054 239.862V251.654C256.054 260.249 255.058 266.617 253.066 270.757C251.127 274.897 248.009 277.727 243.711 279.247C239.414 280.767 230.609 281.527 217.297 281.527H179.013V154.252ZM212.109 176.028V204.329C213.524 204.276 214.625 204.25 215.411 204.25C218.66 204.25 220.73 203.464 221.621 201.892C222.512 200.267 222.958 195.681 222.958 188.135C222.958 184.151 222.591 181.374 221.857 179.802C221.123 178.177 220.154 177.155 218.948 176.736C217.795 176.316 215.515 176.081 212.109 176.028ZM212.109 224.139V259.751C216.773 259.594 219.734 258.86 220.992 257.55C222.302 256.24 222.958 253.017 222.958 247.881V236.01C222.958 230.56 222.381 227.258 221.228 226.105C220.075 224.952 217.035 224.297 212.109 224.139ZM268.003 154.252H291.43C307.048 154.252 317.608 154.855 323.111 156.06C328.666 157.266 333.173 160.358 336.632 165.337C340.144 170.263 341.899 178.151 341.899 188.999C341.899 198.905 340.668 205.56 338.205 208.967C335.741 212.374 330.894 214.418 323.661 215.099C330.212 216.724 334.615 218.899 336.868 221.624C339.122 224.349 340.511 226.865 341.035 229.171C341.611 231.424 341.899 237.687 341.899 247.959V281.527H311.162V239.233C311.162 232.42 310.611 228.201 309.511 226.576C308.463 224.952 305.659 224.139 301.099 224.139V281.527H268.003V154.252ZM301.099 176.028V204.329C304.82 204.329 307.414 203.831 308.882 202.835C310.402 201.787 311.162 198.459 311.162 192.851V185.855C311.162 181.819 310.428 179.173 308.96 177.915C307.545 176.657 304.925 176.028 301.099 176.028ZM430.418 228.778C430.418 241.565 430.104 250.632 429.475 255.978C428.898 261.271 427.011 266.119 423.814 270.521C420.67 274.924 416.399 278.304 411 280.662C405.602 283.021 399.313 284.2 392.133 284.2C385.32 284.2 379.188 283.099 373.738 280.898C368.34 278.645 363.99 275.29 360.688 270.836C357.386 266.381 355.421 261.533 354.792 256.292C354.163 251.051 353.849 241.88 353.849 228.778V207.002C353.849 194.214 354.137 185.173 354.713 179.88C355.342 174.534 357.229 169.66 360.374 165.258C363.57 160.856 367.868 157.475 373.266 155.117C378.664 152.759 384.953 151.579 392.133 151.579C398.946 151.579 405.052 152.706 410.45 154.96C415.901 157.161 420.277 160.489 423.579 164.944C426.88 169.398 428.846 174.246 429.475 179.487C430.104 184.728 430.418 193.9 430.418 207.002V228.778ZM397.322 186.955C397.322 181.033 396.981 177.26 396.3 175.635C395.671 173.958 394.334 173.119 392.291 173.119C390.561 173.119 389.225 173.801 388.281 175.163C387.39 176.474 386.945 180.404 386.945 186.955V246.387C386.945 253.777 387.233 258.336 387.81 260.066C388.438 261.795 389.854 262.66 392.055 262.66C394.308 262.66 395.75 261.664 396.378 259.673C397.007 257.681 397.322 252.938 397.322 245.444V186.955ZM518.465 228.778C518.465 241.565 518.15 250.632 517.521 255.978C516.945 261.271 515.058 266.119 511.861 270.521C508.717 274.924 504.445 278.304 499.047 280.662C493.649 283.021 487.36 284.2 480.18 284.2C473.367 284.2 467.235 283.099 461.785 280.898C456.387 278.645 452.037 275.29 448.735 270.836C445.433 266.381 443.468 261.533 442.839 256.292C442.21 251.051 441.896 241.88 441.896 228.778V207.002C441.896 194.214 442.184 185.173 442.76 179.88C443.389 174.534 445.276 169.66 448.42 165.258C451.617 160.856 455.915 157.475 461.313 155.117C466.711 152.759 473 151.579 480.18 151.579C486.993 151.579 493.099 152.706 498.497 154.96C503.948 157.161 508.324 160.489 511.625 164.944C514.927 169.398 516.893 174.246 517.521 179.487C518.15 184.728 518.465 193.9 518.465 207.002V228.778ZM485.369 186.955C485.369 181.033 485.028 177.26 484.347 175.635C483.718 173.958 482.381 173.119 480.337 173.119C478.608 173.119 477.271 173.801 476.328 175.163C475.437 176.474 474.992 180.404 474.992 186.955V246.387C474.992 253.777 475.28 258.336 475.856 260.066C476.485 261.795 477.9 262.66 480.102 262.66C482.355 262.66 483.796 261.664 484.425 259.673C485.054 257.681 485.369 252.938 485.369 245.444V186.955ZM609.735 154.252L590.789 211.719L611.543 281.527H577.346L563.982 226.97V281.527H530.886V154.252H563.982V203.7L578.683 154.252H609.735ZM650.457 154.252V256.056H670.582V281.527H617.36V154.252H650.457ZM749.195 154.252L725.061 235.46V281.527H694.401V235.46L671.132 154.252H701.555C706.324 179.042 708.997 195.734 709.574 204.329C711.408 190.755 714.474 174.063 718.771 154.252H749.195ZM828.83 154.252V281.527H799.822L782.605 223.668V281.527H754.934V154.252H782.605L801.158 211.561V154.252H828.83Z" fill="#FFD900"/>
<path d="M257.64 389.527H238.089L199.876 323.067V389.527H181.658V295.962H202.161L239.422 361.28V295.962H257.64V389.527ZM274.397 295.962H293.821V389.527H274.397V295.962ZM387.767 389.527H368.216L330.003 323.067V389.527H311.785V295.962H332.288L369.549 361.28V295.962H387.767V389.527ZM471.175 348.648H425.726V372.706H477.522V389.527H406.619V295.962H475.237V312.53H425.726V332.398H471.175V348.648ZM485.838 344.712H522.273V361.851H485.838V344.712ZM611.712 389.527H592.161L553.948 323.067V389.527H535.73V295.962H556.233L593.494 361.28V295.962H611.712V389.527ZM628.47 295.962H647.894V389.527H628.47V295.962ZM741.839 389.527H722.288L684.075 323.067V389.527H665.857V295.962H686.36L723.621 361.28V295.962H741.839V389.527ZM825.247 348.648H779.798V372.706H831.595V389.527H760.691V295.962H829.31V312.53H779.798V332.398H825.247V348.648Z" fill="#FFD900"/>
</svg>
